<svg id="svg" version="1.1" xmlns="http://www.w3.org/2000/svg" xmlns:xlink="http://www.w3.org/1999/xlink" width="400" height="328.8590604026846" viewBox="0, 0, 400,328.8590604026846"><g id="svgg"><path id="path0" d="M75.184 4.468 C 74.897 4.755,74.140 5.134,73.502 5.310 C 69.193 6.500,64.479 12.899,63.479 18.914 C 63.020 21.676,63.087 54.403,63.553 54.868 C 63.853 55.169,70.220 55.263,90.200 55.263 C 125.056 55.263,123.442 54.996,130.931 61.994 C 132.294 63.268,134.144 64.955,135.043 65.744 C 137.067 67.520,141.672 71.669,142.507 72.468 C 143.041 72.978,145.967 75.583,149.973 79.112 C 150.589 79.655,151.489 80.469,151.973 80.921 C 153.426 82.277,160.451 88.477,162.514 90.224 C 162.793 90.460,163.533 90.857,164.159 91.105 C 164.784 91.354,165.504 91.718,165.758 91.914 C 166.084 92.166,187.928 92.318,240.429 92.434 C 297.132 92.560,314.832 92.692,315.461 92.993 C 315.913 93.210,317.074 93.544,318.041 93.736 C 319.008 93.928,320.114 94.306,320.499 94.576 C 320.884 94.845,321.394 95.066,321.633 95.066 C 321.871 95.066,322.467 95.339,322.957 95.672 C 323.448 96.006,324.482 96.695,325.256 97.204 C 330.086 100.379,334.128 106.187,336.471 113.322 L 337.336 115.954 337.500 194.517 C 337.662 271.807,337.675 273.087,338.303 273.546 C 338.836 273.936,341.946 274.013,357.165 274.013 L 375.388 274.013 375.964 273.302 C 376.409 272.753,376.881 272.597,378.049 272.614 C 379.153 272.631,379.848 272.424,380.633 271.845 C 381.224 271.409,381.956 271.053,382.260 271.053 C 382.565 271.053,382.998 270.831,383.224 270.559 C 383.449 270.288,383.815 270.066,384.038 270.066 C 384.981 270.066,391.530 263.478,392.131 261.924 C 392.289 261.517,392.570 261.184,392.755 261.184 C 392.940 261.184,393.092 260.908,393.092 260.571 C 393.092 260.233,393.369 259.604,393.707 259.173 C 394.045 258.741,394.432 257.870,394.566 257.237 C 394.700 256.604,395.052 255.811,395.348 255.476 C 395.668 255.114,395.971 253.979,396.094 252.680 C 396.208 251.477,396.535 249.901,396.821 249.178 C 397.611 247.173,397.615 67.646,396.825 65.625 C 396.542 64.901,396.200 63.309,396.065 62.086 C 395.922 60.785,395.595 59.614,395.278 59.264 C 394.981 58.935,394.737 58.270,394.737 57.787 C 394.737 57.303,394.441 56.612,394.079 56.250 C 393.717 55.888,393.421 55.318,393.421 54.982 C 393.421 54.647,393.051 53.973,392.599 53.485 C 392.146 52.997,391.776 52.398,391.776 52.155 C 391.776 51.053,384.585 44.408,383.392 44.408 C 383.139 44.408,382.739 44.136,382.502 43.803 C 382.266 43.471,381.496 43.107,380.792 42.994 C 380.087 42.881,379.196 42.494,378.812 42.132 C 378.117 41.480,377.612 41.475,303.969 41.455 C 230.674 41.434,229.814 41.426,228.772 40.783 C 228.157 40.403,227.139 40.132,226.329 40.132 C 225.437 40.132,224.639 39.896,224.103 39.474 C 223.643 39.112,223.087 38.816,222.868 38.816 C 222.650 38.816,222.202 38.520,221.875 38.158 C 221.548 37.796,221.162 37.500,221.018 37.500 C 220.875 37.500,219.815 36.575,218.663 35.444 C 216.717 33.533,213.438 30.563,211.513 28.967 C 208.704 26.638,207.528 25.592,205.577 23.684 C 203.196 21.357,199.688 18.232,198.604 17.473 C 197.782 16.897,196.446 15.673,191.922 11.349 C 187.500 7.123,186.869 6.579,186.394 6.579 C 186.178 6.579,185.748 6.283,185.438 5.921 C 185.128 5.559,184.490 5.263,184.019 5.263 C 183.548 5.263,182.787 4.967,182.327 4.605 C 181.158 3.686,76.100 3.552,75.184 4.468 " stroke="none" fill="#547bdc" fill-rule="evenodd"></path><path id="path1" d="M73.766 2.217 C 73.170 2.421,73.261 3.289,73.879 3.289 C 74.167 3.289,74.767 3.003,75.212 2.653 L 76.021 2.017 75.099 2.046 C 74.592 2.063,73.993 2.139,73.766 2.217 M182.230 2.459 C 182.456 2.731,182.772 2.872,182.932 2.773 C 183.092 2.674,183.224 2.750,183.224 2.941 C 183.224 3.133,183.446 3.289,183.717 3.289 C 184.309 3.289,184.389 2.313,183.799 2.278 C 183.573 2.265,183.035 2.189,182.604 2.109 C 181.937 1.986,181.881 2.038,182.230 2.459 M70.508 3.797 C 70.189 4.630,70.630 4.718,71.422 3.980 L 72.164 3.289 71.433 3.289 C 71.032 3.289,70.615 3.518,70.508 3.797 M185.444 3.507 C 185.670 3.599,185.855 3.883,185.855 4.139 C 185.855 4.396,186.151 4.605,186.513 4.605 C 186.875 4.605,187.171 4.399,187.171 4.147 C 187.171 3.650,186.454 3.274,185.582 3.315 C 185.240 3.332,185.188 3.404,185.444 3.507 M188.353 5.428 C 188.841 5.880,189.367 6.250,189.522 6.250 C 189.676 6.250,189.803 6.546,189.803 6.908 C 189.803 7.270,189.914 7.548,190.049 7.527 C 190.777 7.412,191.118 7.635,191.118 8.224 C 191.118 8.662,191.338 8.882,191.776 8.882 C 192.215 8.882,192.434 9.101,192.434 9.539 C 192.434 9.970,192.654 10.197,193.070 10.197 C 193.420 10.197,193.800 10.493,193.914 10.855 C 194.033 11.228,194.412 11.513,194.790 11.513 C 195.180 11.513,195.528 11.786,195.628 12.171 C 195.723 12.533,196.005 12.829,196.255 12.829 C 196.506 12.829,196.711 12.986,196.711 13.177 C 196.711 13.369,196.859 13.434,197.039 13.322 C 197.220 13.211,197.368 13.334,197.368 13.597 C 197.368 13.859,197.574 14.153,197.825 14.249 C 198.152 14.375,198.231 14.233,198.104 13.747 C 198.006 13.375,197.667 13.002,197.349 12.919 C 197.031 12.836,196.698 12.486,196.607 12.141 C 196.517 11.796,196.217 11.513,195.941 11.513 C 195.665 11.513,195.345 11.217,195.230 10.855 C 195.115 10.493,194.735 10.197,194.386 10.197 C 193.969 10.197,193.750 9.970,193.750 9.539 C 193.750 9.101,193.531 8.882,193.092 8.882 C 192.654 8.882,192.434 8.662,192.434 8.224 C 192.434 7.785,192.215 7.566,191.776 7.566 C 191.338 7.566,191.118 7.346,191.118 6.908 C 191.118 6.469,190.899 6.250,190.461 6.250 C 190.090 6.250,189.803 6.031,189.803 5.748 C 189.803 5.473,189.423 5.103,188.959 4.926 C 187.588 4.405,187.410 4.553,188.353 5.428 M66.647 6.770 C 66.368 7.499,66.379 7.518,67.023 7.423 C 67.728 7.320,68.007 6.250,67.329 6.250 C 67.064 6.250,66.757 6.484,66.647 6.770 M65.680 8.114 C 65.301 8.493,65.440 8.882,65.954 8.882 C 66.225 8.882,66.447 8.660,66.447 8.388 C 66.447 7.874,66.058 7.736,65.680 8.114 M61.184 15.789 C 61.184 15.970,61.489 16.118,61.862 16.118 C 62.234 16.118,62.447 15.970,62.336 15.789 C 62.224 15.609,61.919 15.461,61.658 15.461 C 61.398 15.461,61.184 15.609,61.184 15.789 M201.974 17.599 C 201.974 17.870,202.210 18.092,202.498 18.092 C 202.786 18.092,203.100 18.388,203.194 18.750 C 203.289 19.112,203.585 19.408,203.852 19.408 C 204.119 19.408,204.415 19.704,204.510 20.066 C 204.605 20.430,204.959 20.724,205.302 20.724 C 205.702 20.724,205.921 20.957,205.921 21.382 C 205.921 21.743,206.138 22.039,206.403 22.039 C 206.668 22.039,207.043 22.336,207.237 22.697 C 207.637 23.446,208.553 23.587,208.553 22.900 C 208.553 22.650,208.257 22.368,207.895 22.273 C 207.533 22.178,207.237 21.875,207.237 21.599 C 207.237 21.323,206.941 21.003,206.579 20.888 C 206.217 20.773,205.921 20.477,205.921 20.230 C 205.921 19.983,205.639 19.692,205.294 19.582 C 204.948 19.472,204.583 19.166,204.482 18.902 C 204.380 18.637,204.075 18.421,203.805 18.421 C 203.534 18.421,203.154 18.125,202.961 17.763 C 202.546 16.989,201.974 16.894,201.974 17.599 M208.807 24.422 C 208.894 24.754,209.046 24.946,209.144 24.847 C 209.242 24.749,209.667 24.895,210.089 25.171 C 210.510 25.447,210.866 25.559,210.878 25.419 C 210.891 25.279,211.029 25.461,211.184 25.822 C 211.430 26.395,211.470 26.405,211.490 25.896 C 211.503 25.564,211.160 25.178,210.691 25.000 C 210.238 24.828,209.868 24.471,209.868 24.206 C 209.868 23.941,209.595 23.746,209.259 23.771 C 208.838 23.803,208.698 24.004,208.807 24.422 M212.171 26.974 C 212.365 27.336,212.592 27.632,212.676 27.632 C 212.760 27.632,212.829 27.336,212.829 26.974 C 212.829 26.601,212.610 26.316,212.324 26.316 C 211.921 26.316,211.890 26.449,212.171 26.974 M215.137 29.194 C 215.146 29.632,215.611 30.141,216.201 30.359 C 216.517 30.476,216.776 30.798,216.776 31.075 C 216.776 31.352,217.012 31.579,217.301 31.579 C 217.589 31.579,217.899 31.861,217.989 32.206 C 218.079 32.552,218.435 32.908,218.780 32.998 C 219.126 33.088,219.408 33.398,219.408 33.686 C 219.408 33.985,219.681 34.211,220.044 34.211 C 220.398 34.211,220.775 34.513,220.896 34.893 C 221.015 35.269,221.193 35.496,221.290 35.398 C 221.388 35.301,221.778 35.437,222.156 35.702 C 222.959 36.265,223.355 36.316,223.355 35.855 C 223.355 35.674,223.076 35.526,222.736 35.526 C 222.393 35.526,222.039 35.233,221.944 34.868 C 221.850 34.507,221.553 34.211,221.286 34.211 C 221.019 34.211,220.723 33.914,220.628 33.553 C 220.534 33.191,220.220 32.895,219.932 32.895 C 219.644 32.895,219.408 32.668,219.408 32.391 C 219.408 32.114,219.149 31.791,218.832 31.673 C 218.516 31.554,218.063 31.189,217.827 30.860 C 217.590 30.532,217.183 30.263,216.922 30.263 C 216.661 30.263,216.447 30.057,216.447 29.805 C 216.447 29.553,216.213 29.257,215.927 29.147 C 215.252 28.888,215.131 28.895,215.137 29.194 M223.202 36.861 C 223.308 37.031,223.681 37.171,224.033 37.171 C 224.384 37.171,224.671 37.393,224.671 37.664 C 224.671 37.945,224.966 38.158,225.356 38.158 C 226.497 38.158,225.875 37.380,224.391 36.950 C 223.632 36.730,223.097 36.690,223.202 36.861 M228.489 38.768 C 229.103 39.484,231.250 39.793,231.250 39.164 C 231.250 38.712,230.860 38.537,229.289 38.286 L 227.885 38.062 228.489 38.768 M378.797 40.109 C 378.585 40.451,379.158 40.891,379.984 41.020 C 380.378 41.081,380.480 40.926,380.357 40.453 C 380.183 39.788,379.138 39.557,378.797 40.109 M382.128 41.639 C 382.269 42.007,382.398 42.047,382.566 41.776 C 382.733 41.505,382.862 41.546,383.003 41.913 C 383.218 42.474,384.211 42.641,384.211 42.117 C 384.211 41.729,383.124 41.118,382.433 41.118 C 382.108 41.118,382.000 41.304,382.128 41.639 M384.670 42.818 C 384.577 42.969,384.719 43.092,384.986 43.092 C 385.253 43.092,385.546 43.277,385.637 43.503 C 385.729 43.729,385.815 43.606,385.829 43.229 C 385.855 42.552,385.018 42.255,384.670 42.818 M387.171 44.408 C 387.171 44.846,387.390 45.066,387.829 45.066 C 388.268 45.066,388.487 45.285,388.487 45.724 C 388.487 46.114,388.706 46.382,389.026 46.382 C 389.323 46.382,389.778 46.641,390.037 46.957 C 390.346 47.334,390.436 47.362,390.296 47.039 C 390.179 46.768,390.316 46.833,390.601 47.185 C 390.885 47.536,391.118 48.091,391.118 48.418 C 391.118 48.794,391.361 49.013,391.776 49.013 C 392.342 49.013,392.540 49.281,392.504 50.000 C 392.499 50.090,392.878 50.450,393.345 50.799 C 394.116 51.375,394.174 51.380,393.972 50.854 C 393.850 50.536,393.750 50.075,393.750 49.831 C 393.750 49.586,393.454 49.292,393.092 49.178 C 392.730 49.063,392.434 48.683,392.434 48.333 C 392.434 47.917,392.207 47.697,391.776 47.697 C 391.187 47.697,390.965 47.356,391.079 46.628 C 391.101 46.493,390.822 46.382,390.461 46.382 C 390.078 46.382,389.803 46.162,389.803 45.857 C 389.803 45.569,389.520 45.259,389.175 45.169 C 388.830 45.079,388.474 44.723,388.384 44.377 C 388.164 43.537,387.171 43.562,387.171 44.408 M393.959 52.136 C 394.063 52.407,394.263 52.557,394.404 52.469 C 394.545 52.382,394.854 52.790,395.091 53.376 C 395.327 53.962,395.708 54.556,395.937 54.696 C 396.167 54.837,396.276 55.155,396.181 55.403 C 396.086 55.651,396.166 55.952,396.359 56.072 C 396.552 56.191,396.711 56.650,396.711 57.092 C 396.711 57.635,396.897 57.896,397.286 57.900 C 397.778 57.904,397.790 57.951,397.368 58.224 C 397.073 58.414,397.032 58.545,397.266 58.548 C 397.481 58.550,397.757 59.221,397.880 60.037 C 398.002 60.853,398.236 61.604,398.399 61.704 C 398.562 61.805,398.616 62.015,398.520 62.171 C 398.423 62.327,398.490 62.545,398.668 62.654 C 398.846 62.764,398.908 63.275,398.805 63.789 C 398.702 64.302,398.760 64.811,398.934 64.918 C 399.606 65.334,399.420 60.619,398.746 60.142 C 398.340 59.855,398.064 59.145,397.945 58.079 C 397.846 57.186,397.539 56.290,397.265 56.089 C 396.990 55.888,396.662 55.176,396.537 54.507 C 396.411 53.837,396.119 53.289,395.887 53.289 C 395.656 53.289,395.373 52.919,395.260 52.467 C 395.128 51.942,394.822 51.645,394.412 51.645 C 393.978 51.645,393.832 51.804,393.959 52.136 M14.556 54.494 C 14.330 54.585,14.145 54.870,14.145 55.126 C 14.145 55.420,13.796 55.592,13.199 55.592 C 11.316 55.592,10.197 55.975,10.197 56.620 C 10.197 57.018,9.963 57.237,9.539 57.237 C 9.101 57.237,8.882 57.456,8.882 57.895 C 8.882 58.343,8.662 58.553,8.193 58.553 C 7.781 58.553,7.435 58.817,7.332 59.211 C 7.237 59.575,6.883 59.868,6.541 59.868 C 6.140 59.868,5.921 60.101,5.921 60.526 C 5.921 60.965,5.702 61.184,5.263 61.184 C 4.825 61.184,4.605 61.404,4.605 61.842 C 4.605 62.281,4.386 62.500,3.947 62.500 C 3.399 62.500,3.289 62.719,3.289 63.816 C 3.289 64.912,3.180 65.132,2.632 65.132 C 2.090 65.132,1.974 65.351,1.974 66.374 C 1.974 67.209,1.758 67.801,1.318 68.179 C 0.278 69.069,0.275 305.263,1.315 305.263 C 1.905 305.263,1.974 305.482,1.974 307.350 C 1.974 309.020,2.105 309.557,2.632 310.033 C 3.077 310.436,3.289 311.046,3.289 311.924 C 3.289 312.922,3.434 313.257,3.916 313.383 C 4.318 313.489,4.620 313.956,4.757 314.686 C 4.874 315.312,5.184 315.906,5.446 316.006 C 5.707 316.107,5.921 316.409,5.921 316.678 C 5.921 316.947,6.203 317.241,6.549 317.331 C 6.894 317.421,7.250 317.777,7.340 318.123 C 7.436 318.488,7.792 318.750,8.193 318.750 C 8.662 318.750,8.882 318.959,8.882 319.408 C 8.882 319.846,9.101 320.066,9.539 320.066 C 9.988 320.066,10.197 320.285,10.197 320.754 C 10.197 321.155,10.460 321.512,10.825 321.607 C 11.170 321.698,11.531 322.073,11.628 322.442 C 11.743 322.884,11.977 323.045,12.316 322.915 C 12.675 322.777,12.829 322.915,12.829 323.374 C 12.829 323.770,13.154 324.153,13.651 324.342 C 14.104 324.514,14.474 324.795,14.474 324.966 C 14.474 325.137,14.955 325.382,15.543 325.511 C 16.131 325.641,16.803 326.020,17.037 326.354 C 17.358 326.812,17.852 326.952,19.051 326.925 C 20.264 326.898,20.805 327.055,21.340 327.590 L 22.039 328.289 169.737 328.289 C 313.268 328.289,317.451 328.272,318.046 327.678 C 318.425 327.298,319.320 327.003,320.404 326.898 C 321.408 326.802,322.303 326.521,322.511 326.237 C 322.709 325.966,323.349 325.639,323.934 325.511 C 324.518 325.383,325.108 325.093,325.245 324.867 C 325.382 324.642,325.752 324.362,326.069 324.245 C 326.386 324.129,326.645 323.823,326.645 323.566 C 326.645 323.308,327.028 323.001,327.497 322.884 C 328.062 322.742,328.288 322.509,328.167 322.194 C 328.066 321.932,328.090 321.749,328.219 321.786 C 328.716 321.929,330.592 321.068,330.592 320.696 C 330.592 320.481,330.962 319.963,331.414 319.544 C 331.867 319.124,332.237 318.478,332.237 318.108 C 332.237 317.654,332.451 317.434,332.895 317.434 C 333.320 317.434,333.553 317.215,333.553 316.815 C 333.553 316.472,333.846 316.118,334.211 316.023 C 334.709 315.893,334.868 315.574,334.868 314.707 C 334.868 313.818,335.024 313.523,335.567 313.381 C 336.138 313.232,336.237 313.010,336.112 312.160 C 335.988 311.312,336.101 311.058,336.730 310.772 C 337.407 310.463,337.500 310.193,337.500 308.538 C 337.500 306.932,337.597 306.630,338.158 306.484 C 338.804 306.315,338.816 306.035,338.816 290.848 L 338.816 275.384 337.911 274.725 L 337.007 274.066 336.828 195.668 L 336.650 117.270 335.762 114.201 C 332.975 104.571,327.827 98.555,319.243 94.898 C 315.796 93.429,316.019 93.433,240.901 93.427 C 164.551 93.421,166.879 93.470,163.667 91.798 C 162.059 90.961,154.275 84.465,152.632 82.589 C 152.417 82.344,149.789 79.989,146.733 77.303 C 145.395 76.127,144.139 75.008,143.943 74.817 C 143.746 74.625,140.699 71.886,137.171 68.730 C 133.643 65.573,129.868 62.143,128.783 61.108 C 127.590 59.970,125.719 58.670,124.053 57.820 L 121.297 56.414 91.784 56.250 C 60.917 56.078,61.184 56.091,61.184 54.729 C 61.184 54.280,15.656 54.050,14.556 54.494 M399.342 157.730 C 399.342 217.928,399.453 248.355,399.671 248.355 C 399.890 248.355,400.000 217.928,400.000 157.730 C 400.000 97.533,399.890 67.105,399.671 67.105 C 399.453 67.105,399.342 97.533,399.342 157.730 M163.816 131.250 C 164.617 132.051,164.822 139.105,164.063 139.733 C 163.472 140.221,159.202 141.016,155.809 141.269 C 154.209 141.389,152.507 141.636,152.026 141.820 C 151.545 142.003,150.424 142.291,149.535 142.460 C 145.977 143.135,143.566 144.824,142.059 147.697 L 141.283 149.178 141.192 177.673 L 141.101 206.169 141.850 206.369 C 143.955 206.933,144.801 206.567,147.753 203.816 C 156.880 195.309,160.401 191.907,170.251 182.074 C 176.414 175.922,182.428 169.778,183.616 168.421 C 193.946 156.623,197.195 152.224,198.876 147.758 C 200.459 143.551,199.170 141.841,193.995 141.284 C 189.941 140.848,184.667 140.060,184.211 139.823 C 183.226 139.311,183.516 131.536,184.539 131.018 C 185.741 130.410,250.441 130.409,251.645 131.017 C 252.550 131.475,253.109 138.666,252.314 139.624 C 251.945 140.069,248.642 140.850,244.737 141.416 C 241.863 141.833,237.154 142.844,236.678 143.146 C 236.497 143.261,235.683 143.528,234.868 143.740 C 228.906 145.292,219.691 150.692,214.950 155.413 C 214.578 155.783,213.690 156.599,212.976 157.228 C 205.668 163.657,177.174 191.965,176.782 193.186 C 176.615 193.706,182.831 202.007,184.892 204.015 C 185.208 204.324,186.287 205.656,187.289 206.975 C 188.291 208.295,189.452 209.762,189.868 210.236 C 190.284 210.709,190.995 211.584,191.447 212.180 C 192.689 213.816,209.791 235.288,210.304 235.855 C 210.549 236.127,213.615 239.901,217.116 244.243 C 220.618 248.586,223.567 252.212,223.672 252.303 C 223.776 252.393,224.635 253.429,225.582 254.605 C 226.529 255.781,227.574 257.039,227.906 257.401 C 228.237 257.763,229.405 259.169,230.500 260.526 C 233.382 264.096,237.770 268.495,241.330 271.384 C 241.666 271.656,242.681 272.356,243.586 272.938 C 244.490 273.520,245.381 274.121,245.565 274.275 C 247.740 276.089,255.354 278.655,259.978 279.132 C 262.986 279.443,263.198 279.807,263.086 284.459 C 262.996 288.189,262.969 288.317,262.171 288.720 C 261.298 289.161,203.828 289.362,201.233 288.934 C 200.054 288.739,199.807 288.441,195.573 282.112 C 188.271 271.196,182.751 263.283,179.605 259.224 C 178.791 258.174,177.903 256.983,177.632 256.579 C 177.021 255.669,174.185 251.986,173.579 251.316 C 173.334 251.044,172.537 250.008,171.809 249.013 C 171.080 248.018,168.243 244.391,165.504 240.954 C 162.765 237.516,160.266 234.372,159.950 233.967 C 159.634 233.562,159.038 232.822,158.626 232.322 C 157.682 231.180,157.740 231.253,155.296 228.055 C 154.171 226.584,152.919 225.036,152.513 224.615 C 152.106 224.193,151.058 222.887,150.182 221.711 C 149.307 220.535,148.391 219.350,148.146 219.079 C 147.901 218.808,147.317 218.104,146.847 217.516 C 146.022 216.483,145.914 216.447,143.547 216.447 L 141.100 216.447 141.191 243.339 L 141.283 270.230 142.210 271.782 C 144.015 274.806,147.508 276.775,152.884 277.801 C 154.199 278.052,155.430 278.354,155.621 278.472 C 155.811 278.589,157.013 278.817,158.291 278.978 C 161.572 279.390,161.513 279.293,161.513 284.239 C 161.513 288.100,161.458 288.493,160.867 288.809 C 159.490 289.546,78.316 289.090,77.769 288.342 C 77.435 287.885,77.303 286.704,77.303 284.184 C 77.303 279.220,77.152 279.350,83.388 278.967 C 93.414 278.351,97.187 276.829,99.340 272.533 L 100.493 270.230 100.493 210.855 L 100.493 151.480 99.633 149.647 C 97.623 145.366,92.559 142.729,83.553 141.274 C 77.404 140.281,77.303 140.187,77.303 135.526 C 77.303 131.876,77.543 131.113,78.783 130.822 C 81.381 130.214,163.191 130.625,163.816 131.250 M398.366 251.226 C 397.936 251.710,397.945 251.746,398.448 251.553 C 398.759 251.434,399.013 251.480,399.013 251.655 C 399.013 251.830,398.856 251.974,398.665 251.974 C 398.473 251.974,398.408 252.122,398.520 252.303 C 398.632 252.484,398.566 252.632,398.375 252.632 C 398.183 252.632,398.026 253.012,398.026 253.478 C 398.026 255.277,399.168 254.276,399.277 252.382 C 399.381 250.580,399.174 250.317,398.366 251.226 M397.449 255.811 C 397.221 255.902,397.119 256.113,397.221 256.278 C 397.324 256.444,397.267 256.579,397.096 256.579 C 396.925 256.579,396.684 257.257,396.559 258.085 C 396.399 259.156,396.205 259.542,395.890 259.421 C 395.582 259.303,395.378 259.650,395.226 260.553 C 395.105 261.269,394.760 262.101,394.460 262.401 C 394.160 262.701,393.914 263.073,393.914 263.229 C 393.914 263.384,393.692 263.651,393.421 263.823 C 393.060 264.051,393.044 264.136,393.360 264.140 C 394.258 264.150,395.020 263.456,395.248 262.421 C 395.377 261.831,395.759 261.155,396.097 260.919 C 396.487 260.646,396.711 260.090,396.711 259.395 C 396.711 258.596,396.879 258.256,397.336 258.137 C 397.804 258.014,397.961 257.676,397.961 256.783 C 397.961 256.128,397.938 255.604,397.911 255.618 C 397.884 255.632,397.676 255.719,397.449 255.811 M392.599 264.803 C 392.487 264.984,392.700 265.132,393.073 265.132 C 393.445 265.132,393.750 264.984,393.750 264.803 C 393.750 264.622,393.537 264.474,393.276 264.474 C 393.015 264.474,392.710 264.622,392.599 264.803 M387.295 269.473 C 387.148 269.711,387.221 269.745,387.505 269.569 C 387.821 269.374,387.883 269.450,387.731 269.847 C 387.594 270.205,387.688 270.395,388.004 270.395 C 388.269 270.395,388.487 270.189,388.487 269.937 C 388.487 269.345,387.590 268.996,387.295 269.473 M385.855 271.053 C 385.855 271.491,386.075 271.711,386.513 271.711 C 386.952 271.711,387.171 271.491,387.171 271.053 C 387.171 270.614,386.952 270.395,386.513 270.395 C 386.075 270.395,385.855 270.614,385.855 271.053 M383.388 272.368 C 383.276 272.549,383.305 272.700,383.451 272.702 C 383.597 272.705,383.495 272.867,383.224 273.062 C 382.813 273.358,382.832 273.384,383.333 273.222 C 383.664 273.114,384.067 273.026,384.227 273.026 C 384.388 273.026,384.434 272.804,384.329 272.533 C 384.112 271.965,383.684 271.890,383.388 272.368 M374.462 275.163 C 374.358 275.433,374.151 275.579,374.001 275.486 C 373.852 275.394,373.646 275.454,373.543 275.620 C 373.189 276.193,375.665 275.922,376.402 275.307 L 377.138 274.693 375.894 274.682 C 375.086 274.675,374.584 274.843,374.462 275.163 " stroke="none" fill="#f3ab8b" fill-rule="evenodd"></path><path id="path2" d="M79.030 131.811 C 78.316 131.949,78.289 132.082,78.289 135.543 L 78.289 139.132 79.194 139.305 C 79.692 139.401,81.061 139.696,82.237 139.962 C 83.413 140.228,85.315 140.591,86.464 140.769 C 87.613 140.947,88.723 141.233,88.931 141.405 C 89.139 141.577,89.901 141.821,90.625 141.948 C 91.349 142.075,92.237 142.362,92.599 142.586 C 92.961 142.809,93.812 143.174,94.490 143.397 C 95.169 143.619,95.724 143.920,95.724 144.065 C 95.724 144.209,96.148 144.504,96.667 144.719 C 99.264 145.794,100.912 148.773,101.349 153.184 C 101.845 158.177,101.576 269.898,101.065 271.382 C 99.282 276.554,94.900 279.088,86.842 279.603 C 82.660 279.870,79.277 280.349,78.593 280.772 C 78.131 281.058,78.212 287.291,78.684 287.763 C 78.987 288.066,88.559 288.158,119.764 288.158 L 160.450 288.158 160.648 287.418 C 160.757 287.011,160.848 285.386,160.851 283.807 C 160.856 280.315,160.608 280.065,156.704 279.619 C 150.311 278.888,144.520 276.404,142.108 273.358 C 139.803 270.448,139.803 270.445,139.803 241.833 L 139.803 216.224 140.640 215.842 C 141.532 215.436,145.303 215.320,146.216 215.670 C 146.788 215.889,160.197 232.405,160.197 232.890 C 160.197 233.043,160.333 233.218,160.499 233.279 C 160.789 233.384,163.284 236.417,164.638 238.310 C 165.000 238.816,165.592 239.570,165.954 239.986 C 166.316 240.402,166.936 241.160,167.332 241.670 C 167.727 242.181,169.616 244.597,171.529 247.039 C 173.442 249.482,175.264 251.817,175.579 252.229 C 175.894 252.640,176.299 253.162,176.480 253.388 C 177.982 255.265,178.947 256.570,178.947 256.724 C 178.947 256.825,179.206 257.186,179.523 257.527 C 179.840 257.867,180.359 258.496,180.677 258.925 C 180.995 259.353,181.625 260.169,182.075 260.738 C 182.526 261.307,182.895 261.849,182.895 261.942 C 182.895 262.035,183.820 263.365,184.951 264.896 C 186.081 266.427,187.189 267.958,187.413 268.297 C 187.636 268.637,188.181 269.433,188.623 270.066 C 189.066 270.699,191.613 274.474,194.284 278.454 C 196.955 282.434,199.568 286.246,200.091 286.924 L 201.042 288.158 231.242 288.158 C 258.478 288.158,261.462 288.107,261.642 287.638 C 262.032 286.622,261.861 281.016,261.431 280.690 C 260.923 280.304,257.827 279.605,256.636 279.607 C 255.515 279.609,250.322 277.996,249.671 277.443 C 249.400 277.213,248.777 276.925,248.287 276.803 C 247.796 276.680,247.223 276.373,247.013 276.119 C 246.802 275.865,246.474 275.658,246.283 275.658 C 244.340 275.658,235.009 267.510,229.911 261.361 C 228.567 259.739,227.245 258.158,226.974 257.848 C 226.702 257.538,226.284 257.046,226.045 256.755 C 225.805 256.464,224.910 255.380,224.056 254.346 C 223.202 253.313,220.672 250.173,218.434 247.368 C 216.197 244.564,214.196 242.122,213.990 241.941 C 213.783 241.760,212.830 240.598,211.873 239.359 C 210.915 238.120,209.888 236.847,209.589 236.531 C 209.290 236.214,208.750 235.538,208.388 235.029 C 208.026 234.519,207.575 233.941,207.385 233.745 C 207.195 233.549,206.246 232.352,205.277 231.086 C 204.308 229.819,203.279 228.542,202.991 228.248 C 202.703 227.953,202.171 227.297,201.809 226.789 C 201.203 225.938,191.213 213.448,180.207 199.779 C 177.155 195.989,175.658 193.866,175.658 193.329 C 175.658 192.503,200.182 167.531,207.895 160.505 C 217.663 151.605,219.278 150.304,224.507 147.125 C 225.127 146.748,229.328 144.693,230.757 144.067 C 232.135 143.464,236.404 142.135,237.664 141.917 C 238.388 141.792,239.254 141.548,239.588 141.375 C 239.923 141.202,241.551 140.855,243.207 140.603 C 244.862 140.351,246.957 140.000,247.862 139.822 C 248.766 139.644,250.062 139.412,250.740 139.307 L 251.974 139.115 251.974 135.668 C 251.974 132.270,251.962 132.216,251.130 131.900 C 250.211 131.551,186.569 131.441,185.280 131.786 C 184.570 131.976,184.539 132.132,184.539 135.526 C 184.539 139.577,184.432 139.448,187.829 139.484 C 188.824 139.494,190.304 139.646,191.118 139.822 C 191.933 139.998,193.629 140.299,194.888 140.492 C 201.978 141.578,202.395 145.918,196.241 154.594 C 194.787 156.645,188.396 164.601,187.356 165.655 C 186.983 166.033,185.715 167.438,184.539 168.777 C 178.375 175.795,168.047 186.125,154.963 198.362 C 152.355 200.801,149.934 203.070,149.584 203.405 C 145.449 207.356,143.026 208.281,140.439 206.896 C 139.735 206.520,139.413 152.324,140.104 150.591 C 140.270 150.176,140.580 149.151,140.793 148.314 C 141.827 144.256,146.960 141.208,153.783 140.601 C 155.049 140.488,156.678 140.245,157.401 140.061 C 158.125 139.877,159.753 139.633,161.020 139.518 L 163.322 139.309 163.416 135.717 C 163.486 133.065,163.400 132.055,163.087 131.857 C 162.663 131.588,80.421 131.543,79.030 131.811 " stroke="none" fill="#343333" fill-rule="evenodd"></path><path id="path3" d="M75.242 2.630 C 74.775 2.997,73.906 3.289,73.283 3.289 C 72.618 3.289,71.877 3.557,71.457 3.947 C 71.069 4.309,70.524 4.605,70.247 4.605 C 69.969 4.605,69.558 4.901,69.332 5.263 C 69.106 5.625,68.731 5.921,68.498 5.921 C 68.266 5.921,67.935 6.292,67.762 6.746 C 67.590 7.199,67.264 7.533,67.038 7.486 C 66.812 7.439,66.577 7.734,66.515 8.141 C 66.442 8.614,66.172 8.882,65.767 8.882 C 65.380 8.882,65.132 9.108,65.132 9.460 C 65.132 9.779,64.836 10.224,64.474 10.450 C 64.054 10.712,63.816 11.217,63.816 11.845 C 63.816 12.610,63.669 12.829,63.158 12.829 C 62.558 12.829,62.216 14.322,62.461 15.872 C 62.482 16.007,62.208 16.118,61.852 16.118 C 60.920 16.118,60.793 54.858,61.723 55.630 C 62.178 56.008,67.310 56.114,91.784 56.250 L 121.297 56.414 124.053 57.820 C 125.719 58.670,127.590 59.970,128.783 61.108 C 129.868 62.143,133.643 65.573,137.171 68.730 C 140.699 71.886,143.746 74.625,143.943 74.817 C 144.139 75.008,145.395 76.127,146.733 77.303 C 149.789 79.989,152.417 82.344,152.632 82.589 C 154.275 84.465,162.059 90.961,163.667 91.798 C 166.879 93.470,164.551 93.421,240.901 93.427 C 316.019 93.433,315.796 93.429,319.243 94.898 C 327.827 98.555,332.975 104.571,335.762 114.201 L 336.650 117.270 336.828 195.597 L 337.007 273.925 338.124 274.969 L 339.242 276.013 356.216 275.972 C 367.395 275.945,373.331 275.814,373.602 275.590 C 373.828 275.402,374.013 275.369,374.013 275.516 C 374.013 275.663,374.198 275.541,374.424 275.243 C 374.735 274.835,375.466 274.687,377.415 274.636 C 380.809 274.547,381.576 274.387,381.356 273.815 C 381.253 273.546,381.399 273.338,381.708 273.314 C 381.999 273.292,382.385 273.236,382.566 273.191 C 382.747 273.146,383.051 273.090,383.243 273.067 C 383.435 273.045,383.506 272.889,383.402 272.720 C 383.298 272.552,383.380 272.311,383.584 272.185 C 383.788 272.058,384.066 272.135,384.202 272.354 C 384.382 272.646,384.501 272.614,384.648 272.232 C 384.758 271.945,385.074 271.711,385.352 271.711 C 385.630 271.711,385.855 271.426,385.855 271.074 C 385.855 270.630,386.121 270.407,386.735 270.334 C 387.218 270.277,387.681 270.025,387.764 269.773 C 387.864 269.469,387.773 269.404,387.492 269.577 C 387.213 269.750,387.150 269.708,387.307 269.453 C 387.438 269.242,387.671 269.146,387.824 269.240 C 388.360 269.572,389.878 268.764,389.682 268.252 C 389.555 267.922,389.704 267.763,390.142 267.763 C 390.714 267.763,390.824 267.620,390.778 266.929 C 390.751 266.532,391.795 265.762,392.103 265.952 C 392.285 266.065,392.434 265.848,392.434 265.469 C 392.434 265.063,392.738 264.659,393.174 264.484 C 393.604 264.311,393.707 264.176,393.421 264.161 C 392.982 264.138,392.982 264.100,393.421 263.823 C 393.692 263.651,393.914 263.384,393.914 263.229 C 393.914 263.073,394.160 262.701,394.460 262.401 C 394.760 262.101,395.105 261.269,395.226 260.553 C 395.378 259.650,395.582 259.303,395.890 259.421 C 396.205 259.542,396.399 259.156,396.559 258.085 C 396.684 257.257,396.925 256.579,397.096 256.579 C 397.267 256.579,397.325 256.446,397.225 256.284 C 397.125 256.123,397.235 255.917,397.468 255.827 C 397.706 255.736,397.930 255.031,397.976 254.230 C 398.022 253.441,398.201 252.746,398.374 252.686 C 398.547 252.625,398.605 252.440,398.502 252.275 C 398.400 252.109,398.473 251.974,398.665 251.974 C 398.856 251.974,399.013 251.830,399.013 251.655 C 399.013 251.480,398.754 251.429,398.438 251.542 C 398.009 251.695,398.049 251.579,398.597 251.086 L 399.333 250.424 399.338 157.798 C 399.342 90.670,399.243 65.109,398.981 64.947 C 398.776 64.820,398.699 64.316,398.805 63.789 C 398.908 63.275,398.846 62.764,398.668 62.654 C 398.490 62.545,398.423 62.327,398.520 62.171 C 398.616 62.015,398.562 61.805,398.399 61.704 C 398.236 61.604,398.002 60.853,397.880 60.037 C 397.757 59.221,397.481 58.550,397.266 58.548 C 397.032 58.545,397.073 58.414,397.368 58.224 C 397.790 57.951,397.778 57.904,397.286 57.900 C 396.897 57.896,396.711 57.635,396.711 57.092 C 396.711 56.650,396.552 56.191,396.359 56.072 C 396.166 55.952,396.086 55.651,396.181 55.403 C 396.276 55.155,396.167 54.837,395.937 54.696 C 395.708 54.556,395.327 53.962,395.091 53.376 C 394.854 52.790,394.530 52.392,394.370 52.491 C 394.110 52.651,393.945 52.203,394.034 51.581 C 394.052 51.456,393.726 51.086,393.310 50.759 C 392.558 50.167,392.434 49.967,392.434 49.342 C 392.434 49.161,392.138 49.013,391.776 49.013 C 391.164 49.013,390.996 48.606,391.021 47.177 C 391.024 46.981,390.832 46.820,390.594 46.820 C 390.355 46.820,390.239 46.981,390.335 47.177 C 390.431 47.373,390.297 47.274,390.037 46.957 C 389.778 46.641,389.323 46.382,389.026 46.382 C 388.706 46.382,388.487 46.114,388.487 45.724 C 388.487 45.285,388.268 45.066,387.829 45.066 C 387.390 45.066,387.171 44.846,387.171 44.408 C 387.171 43.925,386.952 43.750,386.349 43.750 C 385.896 43.750,385.526 43.602,385.526 43.421 C 385.526 43.240,385.296 43.092,385.013 43.092 C 384.731 43.092,384.592 42.944,384.704 42.763 C 384.819 42.577,384.548 42.434,384.082 42.434 C 383.628 42.434,383.105 42.175,382.921 41.859 C 382.674 41.434,382.583 41.407,382.576 41.757 C 382.568 42.133,382.481 42.118,382.155 41.685 C 381.923 41.378,381.197 41.104,380.493 41.060 C 379.407 40.992,378.039 40.199,378.825 40.093 C 381.864 39.680,364.632 39.549,303.125 39.515 C 234.914 39.477,229.081 39.431,228.713 38.934 C 228.352 38.447,227.754 38.313,225.411 38.195 C 225.004 38.175,224.671 37.946,224.671 37.687 C 224.671 37.429,224.369 37.170,224.000 37.112 C 223.631 37.054,223.372 36.882,223.424 36.730 C 223.524 36.441,221.715 35.342,221.319 35.451 C 221.195 35.485,221.000 35.220,220.886 34.862 C 220.772 34.504,220.411 34.211,220.082 34.211 C 219.753 34.211,219.407 33.914,219.313 33.553 C 219.218 33.191,218.922 32.895,218.655 32.895 C 218.387 32.895,218.091 32.599,217.997 32.237 C 217.902 31.875,217.606 31.579,217.339 31.579 C 217.072 31.579,216.776 31.283,216.681 30.921 C 216.586 30.559,216.283 30.263,216.007 30.263 C 215.731 30.263,215.411 29.967,215.296 29.605 C 215.180 29.240,214.798 28.947,214.437 28.947 C 214.005 28.947,213.819 28.758,213.884 28.384 C 213.943 28.038,213.726 27.768,213.323 27.686 C 212.626 27.544,211.184 26.165,211.184 25.641 C 211.184 25.469,211.073 25.360,210.938 25.399 C 210.802 25.437,210.377 25.294,209.994 25.081 C 209.611 24.868,209.182 24.800,209.041 24.929 C 208.900 25.059,208.867 24.831,208.967 24.424 C 209.067 24.017,209.015 23.766,208.851 23.868 C 208.687 23.969,208.553 23.895,208.553 23.704 C 208.553 23.512,208.336 23.355,208.071 23.355 C 207.806 23.355,207.430 23.059,207.237 22.697 C 207.043 22.336,206.668 22.039,206.403 22.039 C 206.138 22.039,205.921 21.743,205.921 21.382 C 205.921 20.957,205.702 20.724,205.302 20.724 C 204.959 20.724,204.605 20.430,204.510 20.066 C 204.415 19.704,204.119 19.408,203.852 19.408 C 203.585 19.408,203.289 19.112,203.194 18.750 C 203.100 18.388,202.786 18.092,202.498 18.092 C 202.210 18.092,201.974 17.894,201.974 17.651 C 201.974 17.409,201.603 17.042,201.149 16.835 C 200.696 16.629,200.363 16.279,200.409 16.057 C 200.455 15.836,200.296 15.648,200.056 15.640 C 199.815 15.632,199.402 15.329,199.137 14.967 C 198.872 14.605,198.514 14.291,198.341 14.268 C 198.168 14.245,197.878 14.208,197.697 14.186 C 197.516 14.163,197.368 13.914,197.368 13.632 C 197.368 13.350,197.220 13.211,197.039 13.322 C 196.859 13.434,196.711 13.369,196.711 13.177 C 196.711 12.986,196.506 12.829,196.255 12.829 C 196.005 12.829,195.723 12.533,195.628 12.171 C 195.528 11.786,195.180 11.513,194.790 11.513 C 194.412 11.513,194.033 11.228,193.914 10.855 C 193.800 10.493,193.420 10.197,193.070 10.197 C 192.654 10.197,192.434 9.970,192.434 9.539 C 192.434 9.101,192.215 8.882,191.776 8.882 C 191.338 8.882,191.118 8.662,191.118 8.224 C 191.118 7.635,190.777 7.412,190.049 7.527 C 189.914 7.548,189.803 7.270,189.803 6.908 C 189.803 6.546,189.676 6.250,189.522 6.250 C 189.367 6.250,188.841 5.880,188.353 5.428 C 187.865 4.975,187.104 4.605,186.661 4.605 C 186.192 4.605,185.855 4.414,185.855 4.147 C 185.855 3.617,185.155 3.289,184.019 3.289 C 183.582 3.289,183.224 3.133,183.224 2.941 C 183.224 2.750,183.092 2.674,182.932 2.773 C 182.772 2.872,182.459 2.735,182.237 2.467 C 181.501 1.580,76.373 1.740,75.242 2.630 M182.327 4.605 C 182.787 4.967,183.548 5.263,184.019 5.263 C 184.490 5.263,185.128 5.559,185.438 5.921 C 185.748 6.283,186.178 6.579,186.394 6.579 C 186.869 6.579,187.500 7.123,191.922 11.349 C 196.446 15.673,197.782 16.897,198.604 17.473 C 199.688 18.232,203.196 21.357,205.577 23.684 C 207.528 25.592,208.704 26.638,211.513 28.967 C 213.438 30.563,216.717 33.533,218.663 35.444 C 219.815 36.575,220.875 37.500,221.018 37.500 C 221.162 37.500,221.548 37.796,221.875 38.158 C 222.202 38.520,222.650 38.816,222.868 38.816 C 223.087 38.816,223.643 39.112,224.103 39.474 C 224.639 39.896,225.437 40.132,226.329 40.132 C 227.139 40.132,228.157 40.403,228.772 40.783 C 229.814 41.426,230.674 41.434,303.969 41.455 C 377.612 41.475,378.117 41.480,378.812 42.132 C 379.196 42.494,380.087 42.881,380.792 42.994 C 381.496 43.107,382.266 43.471,382.502 43.803 C 382.739 44.136,383.139 44.408,383.392 44.408 C 384.585 44.408,391.776 51.053,391.776 52.155 C 391.776 52.398,392.146 52.997,392.599 53.485 C 393.051 53.973,393.421 54.647,393.421 54.982 C 393.421 55.318,393.717 55.888,394.079 56.250 C 394.441 56.612,394.737 57.303,394.737 57.787 C 394.737 58.270,394.981 58.935,395.278 59.264 C 395.595 59.614,395.922 60.785,396.065 62.086 C 396.200 63.309,396.542 64.901,396.825 65.625 C 397.615 67.646,397.611 247.173,396.821 249.178 C 396.535 249.901,396.208 251.477,396.094 252.680 C 395.971 253.979,395.668 255.114,395.348 255.476 C 395.052 255.811,394.700 256.604,394.566 257.237 C 394.432 257.870,394.045 258.741,393.707 259.173 C 393.369 259.604,393.092 260.233,393.092 260.571 C 393.092 260.908,392.940 261.184,392.755 261.184 C 392.570 261.184,392.289 261.517,392.131 261.924 C 391.808 262.761,389.953 264.937,387.993 266.780 C 385.073 269.527,384.425 270.066,384.038 270.066 C 383.815 270.066,383.449 270.288,383.224 270.559 C 382.998 270.831,382.565 271.053,382.260 271.053 C 381.956 271.053,381.224 271.409,380.633 271.845 C 379.848 272.424,379.153 272.631,378.049 272.614 C 376.881 272.597,376.409 272.753,375.964 273.302 L 375.388 274.013 357.165 274.013 C 341.946 274.013,338.836 273.936,338.303 273.546 C 337.675 273.087,337.662 271.807,337.500 194.517 L 337.336 115.954 336.471 113.322 C 334.128 106.187,330.086 100.379,325.256 97.204 C 324.482 96.695,323.448 96.006,322.957 95.672 C 322.467 95.339,321.871 95.066,321.633 95.066 C 321.394 95.066,320.884 94.845,320.499 94.576 C 320.114 94.306,319.008 93.928,318.041 93.736 C 317.074 93.544,315.913 93.210,315.461 92.993 C 314.832 92.692,297.132 92.560,240.429 92.434 C 187.928 92.318,166.084 92.166,165.758 91.914 C 165.504 91.718,164.784 91.354,164.159 91.105 C 163.533 90.857,162.793 90.460,162.514 90.224 C 160.451 88.477,153.426 82.277,151.973 80.921 C 151.489 80.469,150.589 79.655,149.973 79.112 C 145.967 75.583,143.041 72.978,142.507 72.468 C 141.672 71.669,137.067 67.520,135.043 65.744 C 134.144 64.955,132.294 63.268,130.931 61.994 C 123.442 54.996,125.056 55.263,90.200 55.263 C 70.220 55.263,63.853 55.169,63.553 54.868 C 63.087 54.403,63.020 21.676,63.479 18.914 C 64.479 12.899,69.193 6.500,73.502 5.310 C 74.140 5.134,74.897 4.755,75.184 4.468 C 76.100 3.552,181.158 3.686,182.327 4.605 " stroke="none" fill="#95a3df" fill-rule="evenodd"></path><path id="path4" d="M78.783 130.822 C 77.543 131.113,77.303 131.876,77.303 135.526 C 77.303 140.187,77.404 140.281,83.553 141.274 C 92.559 142.729,97.623 145.366,99.633 149.647 L 100.493 151.480 100.493 210.855 L 100.493 270.230 99.340 272.533 C 97.187 276.829,93.414 278.351,83.388 278.967 C 77.152 279.350,77.303 279.220,77.303 284.184 C 77.303 286.704,77.435 287.885,77.769 288.342 C 78.316 289.090,159.490 289.546,160.867 288.809 C 161.458 288.493,161.513 288.100,161.513 284.239 C 161.513 279.293,161.572 279.390,158.291 278.978 C 157.013 278.817,155.811 278.589,155.621 278.472 C 155.430 278.354,154.199 278.052,152.884 277.801 C 147.508 276.775,144.015 274.806,142.210 271.782 L 141.283 270.230 141.191 243.339 L 141.100 216.447 143.547 216.447 C 145.914 216.447,146.022 216.483,146.847 217.516 C 147.317 218.104,147.901 218.808,148.146 219.079 C 148.391 219.350,149.307 220.535,150.182 221.711 C 151.058 222.887,152.106 224.193,152.513 224.615 C 152.919 225.036,154.171 226.584,155.296 228.055 C 157.740 231.253,157.682 231.180,158.626 232.322 C 159.038 232.822,159.634 233.562,159.950 233.967 C 160.266 234.372,162.765 237.516,165.504 240.954 C 168.243 244.391,171.080 248.018,171.809 249.013 C 172.537 250.008,173.334 251.044,173.579 251.316 C 174.185 251.986,177.021 255.669,177.632 256.579 C 177.903 256.983,178.791 258.174,179.605 259.224 C 182.751 263.283,188.271 271.196,195.573 282.112 C 199.807 288.441,200.054 288.739,201.233 288.934 C 203.828 289.362,261.298 289.161,262.171 288.720 C 262.969 288.317,262.996 288.189,263.086 284.459 C 263.198 279.807,262.986 279.443,259.978 279.132 C 258.022 278.930,256.828 278.692,253.618 277.862 C 251.965 277.435,246.360 274.938,245.565 274.275 C 245.381 274.121,244.490 273.520,243.586 272.938 C 242.681 272.356,241.666 271.656,241.330 271.384 C 237.770 268.495,233.382 264.096,230.500 260.526 C 229.405 259.169,228.237 257.763,227.906 257.401 C 227.574 257.039,226.529 255.781,225.582 254.605 C 224.635 253.429,223.776 252.393,223.672 252.303 C 223.567 252.212,220.618 248.586,217.116 244.243 C 213.615 239.901,210.549 236.127,210.304 235.855 C 209.791 235.288,192.689 213.816,191.447 212.180 C 190.995 211.584,190.284 210.709,189.868 210.236 C 189.452 209.762,188.291 208.295,187.289 206.975 C 186.287 205.656,185.208 204.324,184.892 204.015 C 182.831 202.007,176.615 193.706,176.782 193.186 C 177.174 191.965,205.668 163.657,212.976 157.228 C 213.690 156.599,214.578 155.783,214.950 155.413 C 219.691 150.692,228.906 145.292,234.868 143.740 C 235.683 143.528,236.497 143.261,236.678 143.146 C 237.154 142.844,241.863 141.833,244.737 141.416 C 248.642 140.850,251.945 140.069,252.314 139.624 C 253.109 138.666,252.550 131.475,251.645 131.017 C 250.441 130.409,185.741 130.410,184.539 131.018 C 183.516 131.536,183.226 139.311,184.211 139.823 C 184.667 140.060,189.941 140.848,193.995 141.284 C 201.446 142.086,201.416 145.975,193.881 156.086 C 191.397 159.418,189.457 161.750,183.616 168.421 C 182.428 169.778,176.414 175.922,170.251 182.074 C 160.401 191.907,156.880 195.309,147.753 203.816 C 144.801 206.567,143.955 206.933,141.850 206.369 L 141.101 206.169 141.192 177.673 L 141.283 149.178 142.059 147.697 C 143.566 144.824,145.977 143.135,149.535 142.460 C 150.424 142.291,151.545 142.003,152.026 141.820 C 152.507 141.636,154.209 141.389,155.809 141.269 C 159.202 141.016,163.472 140.221,164.063 139.733 C 164.822 139.105,164.617 132.051,163.816 131.250 C 163.191 130.625,81.381 130.214,78.783 130.822 M163.087 131.857 C 163.400 132.055,163.486 133.065,163.416 135.717 L 163.322 139.309 161.020 139.518 C 159.753 139.633,158.125 139.877,157.401 140.061 C 156.678 140.245,155.049 140.488,153.783 140.601 C 146.960 141.208,141.827 144.256,140.793 148.314 C 140.580 149.151,140.270 150.176,140.104 150.591 C 139.413 152.324,139.735 206.520,140.439 206.896 C 143.026 208.281,145.449 207.356,149.584 203.405 C 149.934 203.070,152.355 200.801,154.963 198.362 C 168.047 186.125,178.375 175.795,184.539 168.777 C 185.715 167.438,186.983 166.033,187.356 165.655 C 188.396 164.601,194.787 156.645,196.241 154.594 C 202.395 145.918,201.978 141.578,194.888 140.492 C 193.629 140.299,191.933 139.998,191.118 139.822 C 190.304 139.646,188.824 139.494,187.829 139.484 C 184.432 139.448,184.539 139.577,184.539 135.526 C 184.539 132.132,184.570 131.976,185.280 131.786 C 186.569 131.441,250.211 131.551,251.130 131.900 C 251.962 132.216,251.974 132.270,251.974 135.668 L 251.974 139.115 250.740 139.307 C 250.062 139.412,248.766 139.644,247.862 139.822 C 246.957 140.000,244.862 140.351,243.207 140.603 C 241.551 140.855,239.923 141.202,239.588 141.375 C 239.254 141.548,238.388 141.792,237.664 141.917 C 236.404 142.135,232.135 143.464,230.757 144.067 C 229.328 144.693,225.127 146.748,224.507 147.125 C 219.278 150.304,217.663 151.605,207.895 160.505 C 200.182 167.531,175.658 192.503,175.658 193.329 C 175.658 193.866,177.155 195.989,180.207 199.779 C 191.213 213.448,201.203 225.938,201.809 226.789 C 202.171 227.297,202.703 227.953,202.991 228.248 C 203.279 228.542,204.308 229.819,205.277 231.086 C 206.246 232.352,207.195 233.549,207.385 233.745 C 207.575 233.941,208.026 234.519,208.388 235.029 C 208.750 235.538,209.290 236.214,209.589 236.531 C 209.888 236.847,210.915 238.120,211.873 239.359 C 212.830 240.598,213.783 241.760,213.990 241.941 C 214.196 242.122,216.197 244.564,218.434 247.368 C 220.672 250.173,223.202 253.313,224.056 254.346 C 224.910 255.380,225.805 256.464,226.045 256.755 C 226.284 257.046,226.702 257.538,226.974 257.848 C 227.245 258.158,228.567 259.739,229.911 261.361 C 235.009 267.510,244.340 275.658,246.283 275.658 C 246.474 275.658,246.802 275.865,247.013 276.119 C 247.223 276.373,247.796 276.680,248.287 276.803 C 248.777 276.925,249.400 277.213,249.671 277.443 C 250.322 277.996,255.515 279.609,256.636 279.607 C 257.827 279.605,260.923 280.304,261.431 280.690 C 261.861 281.016,262.032 286.622,261.642 287.638 C 261.462 288.107,258.478 288.158,231.242 288.158 L 201.042 288.158 200.091 286.924 C 199.568 286.246,196.955 282.434,194.284 278.454 C 191.613 274.474,189.066 270.699,188.623 270.066 C 188.181 269.433,187.636 268.637,187.413 268.297 C 187.189 267.958,186.081 266.427,184.951 264.896 C 183.820 263.365,182.895 262.035,182.895 261.942 C 182.895 261.849,182.526 261.307,182.075 260.738 C 181.625 260.169,180.995 259.353,180.677 258.925 C 180.359 258.496,179.840 257.867,179.523 257.527 C 179.206 257.186,178.947 256.825,178.947 256.724 C 178.947 256.570,177.982 255.265,176.480 253.388 C 176.299 253.162,175.894 252.640,175.579 252.229 C 175.264 251.817,173.442 249.482,171.529 247.039 C 169.616 244.597,167.727 242.181,167.332 241.670 C 166.936 241.160,166.316 240.402,165.954 239.986 C 165.592 239.570,165.000 238.816,164.638 238.310 C 163.284 236.417,160.789 233.384,160.499 233.279 C 160.333 233.218,160.197 233.043,160.197 232.890 C 160.197 232.405,146.788 215.889,146.216 215.670 C 145.303 215.320,141.532 215.436,140.640 215.842 L 139.803 216.224 139.803 241.833 C 139.803 270.445,139.803 270.448,142.108 273.358 C 144.520 276.404,150.311 278.888,156.704 279.619 C 160.608 280.065,160.856 280.315,160.851 283.807 C 160.848 285.386,160.757 287.011,160.648 287.418 L 160.450 288.158 119.764 288.158 C 88.559 288.158,78.987 288.066,78.684 287.763 C 78.212 287.291,78.131 281.058,78.593 280.772 C 79.277 280.349,82.660 279.870,86.842 279.603 C 94.900 279.088,99.282 276.554,101.065 271.382 C 101.576 269.898,101.845 158.177,101.349 153.184 C 100.912 148.773,99.264 145.794,96.667 144.719 C 96.148 144.504,95.724 144.209,95.724 144.065 C 95.724 143.920,95.169 143.619,94.490 143.397 C 93.812 143.174,92.961 142.809,92.599 142.586 C 92.237 142.362,91.349 142.075,90.625 141.948 C 89.901 141.821,89.139 141.577,88.931 141.405 C 88.723 141.233,87.613 140.947,86.464 140.769 C 85.315 140.591,83.413 140.228,82.237 139.962 C 81.061 139.696,79.692 139.401,79.194 139.305 L 78.289 139.132 78.289 135.543 C 78.289 132.082,78.316 131.949,79.030 131.811 C 80.421 131.543,162.663 131.588,163.087 131.857 " stroke="none" fill="#8b645c" fill-rule="evenodd"></path></g></svg>